<?xml version="1.0" encoding="utf-8"?>
<!-- Generator: Adobe Illustrator 25.2.0, SVG Export Plug-In . SVG Version: 6.00 Build 0)  -->
<svg version="1.1" id="Layer_6" xmlns="http://www.w3.org/2000/svg" xmlns:xlink="http://www.w3.org/1999/xlink" x="0px" y="0px"
	 viewBox="0 0 128 128" style="enable-background:new 0 0 128 128;" xml:space="preserve">
<style type="text/css">
	.st0{fill:#E5B27F;}
	.st1{fill:#C69461;}
	.st2{fill:#BC8346;}
	.st3{fill:#FFE57F;}
	.st4{fill:#FFCA28;}
	.st5{fill:#2C2C2C;}
</style>
<g>
	<path class="st0" d="M62.5,104.8c0,0-16.9,12.7-24.3,16.9c-1.3,0.7-30-27.2-26.7-30.6c1.9-1.9,12.2-8.8,14.4-11.8
		c0,0,0.2-0.2-0.3-0.7c-6-4.9-12.4-10.6-16.9-18.8c-4.5-8.1-6.4-27.8,1.2-40.1c1.5-2.5,9-3.1,16.6-1.5c10.2,2.2,15.8,5.7,13.9,12.1
		C38.7,36,34.1,46,34.1,53.1c0,6,7.2,10,7.2,10s4.5-6.6,6.7-17c1.3-6.6,0-16.3-0.6-23.1c-0.7-7.3-0.1-21.6,37.3-18.6
		c21.7,1.8,23.9,5.7,25.2,13.9c0.5,3.4,0,17.2,0,17.2s5.6,1.9,6.9,4.5c1,2,1,9.6,0.8,12.2c-0.3,2.9-8.4,5.5-14.2,7.2
		c-2.1,0.6-6.4,8-9.2,12.5C91.7,76,79.3,88.4,79.3,88.4c2.9,1.1,8.5-1.3,10.9-2.9c2-1.4,3.8-3.1,5.2-5c1.8-2.4,3.2-5.3,5.7-6.8
		c2.7-1.6,9.8-0.4,15.4,6.1c6.7,7.8,6.3,12.8,5.2,15.8c-0.8,2.2-7.6,12.4-24,15.9C80.5,115.2,62.5,104.8,62.5,104.8z"/>
	<path class="st1" d="M42,54.4L42,54.4L42,54.4L42,54.4z"/>
	<path class="st2" d="M48.5,43.6c0.1-0.1,5.4-4.6,9.9-6.7c4.6-2.2,9.4-3.2,16-3.4c5.4-0.1,13.1,0.9,22.8-2.7
		c4.5-1.7,7.8-4.9,7.9-2.2c0.2,3.5-0.7,4.6-2.1,6.1c-1.3,1.4,0,2,0.6,1.8c2.1-0.9,4.4-1,6.8-0.7c-0.3-1.3,0.4-13.1,0.3-16.5
		c-0.2-5.3-1.2-9.3-5.8-11.7c-1.6-0.8-8.1-2-14.8-2.7C82.8,4.1,75.3,3.9,73.1,4c-0.6,0-1.8,1,0.7,1.5c2.5,0.5,17.3,2.5,20.6,3.6
		c2.3,0.8,7.2,2.6,7.2,7.6c0,2.4,0,5.7-10.4,8.9C80.2,29,68.3,26.8,58,31.9c-5.6,2.8-8.7,6.5-9.1,7.1c-0.1,0.1-0.3,0.4-0.3,0.8
		c0,1,0,2.4-0.2,3.4C48.4,43.5,48.4,43.7,48.5,43.6z"/>
	<path class="st2" d="M118.4,80.2c-2.6-3.4-7.3-7.9-14.3-7.6c-1.3,0.1-2.6,0.6-3.5,1.5c-2.4,2.4-1.3,6.1-0.3,9
		c1.3,3.8,6.7,9.8,10.6,12.9c0.6,0.5,2.6,1.8,1.3,3.9c-0.9,1.5-4.5,4.2-9.8,5.7c-1.5,0.4-3-0.3-3.6-1.1c-3.7-4.6-7.5-11.7-7.5-19
		c0-0.5-0.5-0.4-0.9-0.1c-0.4,0.2-1,0.7-1.5,1c-0.5,0.4-0.7,1.6-0.7,2c-0.2,4.5,2.1,12.2,5.1,17.8c0.5,1,0.5,1.5-1.5,1.9
		c-5.5,1.2-11.3,0-13.5-0.7c-1.9-0.6-1.8-1.9-1.7-3.1c0.8-8.8,5.3-15.6,5.3-15.6s-1.5,0-2.6,0.8c-1.8,1.2-3.2,3.4-4,5
		c-1.7,3.5-2.4,6.8-3,10c0,0-0.2,1.6-2.2,1.2c-1.9-0.3-5.2-1.6-6.9-3.7c-2.1-2.5,2.2-10.5,7-13c4.6-2.3,9-0.6,9-0.6
		c6.9-5.7,12.8-11.8,17.3-19.2c1.9-3.1,4.6-7.3,6.3-8.8c2.6-2.2,9.6-2.4,14-6c1.5-1.2,2.6-4.3,2-8.5c-0.6-4.2-2.9-7.9-4.2-7.2
		c-1.9,1-2.9,6.3-0.9,11.5c0.7,1.9-1.3,2.5-2.8,3c-2.2,0.6-5.4,1.3-7.4,0.1c-3-1.7-2.8-7.7-1.9-10.2c0.8-2.5-0.9-3.6-2.6-1.9
		c-3.3,3.4-3.5,8.8-2.3,13.5c0.2,0.7,0.4,2.7-2.7,3.6c-5.6,1.7-13.5-1.5-18.4-3.7c-13-5.9-20.9-4.3-25.3-2.2
		c-7,3.5-9.1,10.3-9.1,10.3s-5.8-3.7-6.8-8.9c-0.3-1.4,0.1-4.1,0.4-5.5c1.7-7.2,5-15.2,5.8-17.9c1.6-5.5-3.5-9-6.3-10.1
		s-4.9-0.9-3.2,0.1c2,1.2,4.5,2.5,4.9,4.2c0.3,1.7-0.5,3.5-5.9,3.7c-5,0.2-12.2-1.7-14.7-4.3c-1.4-1.5-2.5-2.9-1-4.3
		c0.9-0.8,3.9-1.2,7.1-1.4c1.8-0.1,1.9-0.9,0.8-1C17.3,16.9,9.7,16.9,9,21.3c-0.7,4,5.6,8.5,10.1,10.2c4.8,1.8,9.5,2.8,13.6,3
		c0.9,0,1.1,0.4,0.8,1.4c-0.3,1.1-1.6,6.3-3,9.9c-0.4,1.1-0.9,1.6-3.5,2c-8.7,1.2-16.5-0.6-22.2-5c0,0,0,1,0.1,2.1
		c0.1,0.9,0.3,2.5,0.3,2.5c6.3,4.9,14.7,5.8,22.3,4.8c1.2-0.2,2.7-0.5,2.8,0.4c0.1,1.2-1.5,1.6-5.7,3.2c-5,2-8.6,5.7-11,9.9
		c-0.4,0.7-0.3,0.9,0.6,2c1,1.1,1.3,1.6,2,0.8c3.8-4.5,7.6-9,14.9-10.2c0.4-0.1,1.4,0,2.2,1.2c1,1.5,1.5,2.4,2.8,4.3
		c0.5,0.6-0.1,1.4-1.4,2.5c-6.9,6-8.7,11.5-8.8,12.1s0.1,0.8,0.4,0.6c0,0,3.3-2.7,6-4.4c2.4-1.5,5.6-2.6,8.8-2.8
		c4.1-0.3,8.5,1.4,10.2,5.9c1.5,3.8,0.4,8,0.6,12c0,4.1,2,8.2,2.8,11.6c0.7,2.7-2.6,4.2-5.3,6.3c-1,0.8-2.8,1.9-4.1,2.8
		c-0.9,0.6-2.1,0.1-2.3-1c-0.6-3.1-2.7-8.8-9.2-15.1c-6.6-6.3-17.2-8.6-23.5-2c-5.4,5.4-3.4,16.1,4.4,23.9c7,7,15,9.2,22.2,6.8
		c4.8-1.6,16-10.7,22.7-14.1c2-1,2.8-2.2,4.7-1.5c4.5,1.6,15.1,5.4,22.6,5.8c8.2,0.4,15.8-1.1,24.3-5.8c5-2.8,9.1-7.7,11.2-11.3
		C124.4,92.1,123.3,86.6,118.4,80.2z M60.8,89c-2.2,1-1.2-5.8-1.2-6.8c0.2-5.6-2.5-9.4-5.9-11.3c-4.7-2.8-9.7-2.5-11.6-3.2
		c-2-0.7,0.6-5,3.9-7.6c4.3-3.3,11-6.2,17-4.3c10.2,3.2,19.2,9.4,25.1,10.7c3.7,0.8,0.9,4.6-1.4,7.3c-2.6,3.1-6.3,8.1-9.5,8.6
		c-4.5,0.8-8.6,0.9-12.1,3.5C64,86.8,61.2,88.8,60.8,89z"/>
	<path class="st0" d="M115.7,91.3c4,1.1,4.4-1.3,3.4-4.2c-1.3-4-4.7-8.9-9.9-11.2c-6.1-2.6-5.7,2.2-3.8,6.2
		C107.2,85.9,111.7,90.2,115.7,91.3z"/>
	<ellipse transform="matrix(0.7071 -0.7071 0.7071 0.7071 -68.4351 48.2127)" class="st3" cx="24" cy="106.7" rx="10.1" ry="14.7"/>
</g>
<path class="st4" d="M88.5,78.7h-14c-2.6,0-4.7,2.1-4.7,4.7v28.1c0,2.6,2.1,4.7,4.7,4.7h37.4c2.6,0,4.7-2.1,4.7-4.7V88.1
	c0-2.6-2.1-4.7-4.7-4.7H93.2C93.2,83.4,88.5,78.7,88.5,78.7z"/>
<path class="st5" d="M107.1,112.4c0.9,1.8,2.7,2.9,4.6,2.8c1.9,0,3.2-1,3.2-2.3c0-1.6-1.3-2.2-3.4-3.1l-1.2-0.5
	c-3.4-1.4-5.6-3.2-5.6-7c0-3.5,2.7-6.2,6.8-6.2c2.8-0.2,5.4,1.3,6.7,3.7l-3.6,2.3c-0.5-1.2-1.7-2-3-2c-1.1-0.1-2.1,0.7-2.2,1.8
	c0,0.1,0,0.1,0,0.2c0,1.4,0.9,2,2.9,2.8l1.2,0.5c4,1.7,6.2,3.4,6.2,7.3c0,4.2-3.3,6.5-7.7,6.5c-3.5,0.2-6.8-1.7-8.5-4.8L107.1,112.4
	z M90.6,112.8c0.7,1.4,1.4,2.4,3,2.4c1.6,0,2.5-0.6,2.5-2.9V96.4h4.7v15.9c0,4.8-2.8,7-7,7c-3,0.2-5.8-1.5-7-4.3L90.6,112.8z"/>
</svg>
